<svg width="134" height="57" viewBox="0 0 134 57" fill="none" xmlns="http://www.w3.org/2000/svg">
<path d="M6.392 30.6C6.36933 30.6907 6.358 30.8153 6.358 30.974C6.358 31.5407 6.562 31.824 6.97 31.824C7.174 31.824 7.38933 31.7673 7.616 31.654C7.86533 31.5407 8.194 31.3027 8.602 30.94L9.044 31.994C8.68133 32.5153 8.14867 33.0367 7.446 33.558C6.74333 34.0793 5.83667 34.34 4.726 34.34C3.86467 34.34 3.162 34.17 2.618 33.83C2.074 33.4673 1.79067 32.912 1.768 32.164C1.768 32.0733 1.81333 31.6653 1.904 30.94L4.862 9.214L2.72 8.534L3.026 7.276L8.806 6.596L9.588 7.038L6.392 30.6ZM15.9354 12.002C15.1194 12.002 14.4734 11.764 13.9974 11.288C13.5214 10.812 13.2834 10.2 13.2834 9.452C13.2834 8.59066 13.5554 7.87667 14.0994 7.31C14.6434 6.74333 15.3687 6.46 16.2754 6.46C17.182 6.46 17.8734 6.70933 18.3494 7.208C18.8254 7.684 19.0634 8.28467 19.0634 9.01C19.0634 9.91667 18.7914 10.642 18.2474 11.186C17.7034 11.73 16.944 12.002 15.9694 12.002H15.9354ZM14.1334 18.326L11.7194 17.68V15.402L17.9414 14.654H18.0094L18.9614 15.334V31.688L21.2394 31.96V34H11.7534V31.96L14.1334 31.654V18.326ZM25.5805 18.326L23.4045 17.714V15.368L29.0485 14.654H29.1505L30.0005 15.334V16.66L29.9665 17.476C30.7598 16.728 31.7912 16.082 33.0605 15.538C34.3298 14.994 35.6105 14.722 36.9025 14.722C38.2852 14.722 39.3618 14.9827 40.1325 15.504C40.9258 16.0027 41.4925 16.796 41.8325 17.884C42.1725 18.972 42.3425 20.4453 42.3425 22.304V31.688L44.4165 31.96V34H35.6445V31.96L37.4805 31.688V22.304C37.4805 21.1253 37.4012 20.2073 37.2425 19.55C37.0838 18.87 36.7892 18.3827 36.3585 18.088C35.9505 17.7707 35.3612 17.612 34.5905 17.612C33.2985 17.612 31.9158 18.1673 30.4425 19.278V31.654L32.4825 31.96V34H23.6085V31.96L25.5805 31.654V18.326ZM52.5311 34.306C51.1031 34.306 50.0491 33.9773 49.3691 33.32C48.6891 32.6627 48.3491 31.62 48.3491 30.192V17.714H46.1391V15.946C46.3204 15.878 46.6491 15.7647 47.1251 15.606C47.6011 15.4247 47.9637 15.2773 48.2131 15.164C48.5984 14.8693 48.9271 14.3593 49.1991 13.634C49.4031 13.158 49.7771 11.9793 50.3211 10.098H53.0411L53.1771 15.096H58.3791V17.714H53.2111V27.268C53.2111 28.5373 53.2451 29.4327 53.3131 29.954C53.3811 30.4753 53.5284 30.8153 53.7551 30.974C53.9817 31.11 54.3784 31.178 54.9451 31.178C55.5117 31.178 56.1011 31.1213 56.7131 31.008C57.3251 30.872 57.8351 30.7133 58.2431 30.532L58.8891 32.436C58.2544 32.912 57.3251 33.3427 56.1011 33.728C54.8771 34.1133 53.6871 34.306 52.5311 34.306ZM69.266 34.374C66.274 34.374 64.0413 33.5013 62.568 31.756C61.1173 29.988 60.392 27.5853 60.392 24.548C60.392 22.508 60.766 20.74 61.514 19.244C62.2846 17.748 63.3613 16.6033 64.744 15.81C66.1266 15.0167 67.7246 14.62 69.538 14.62C71.8046 14.62 73.55 15.2207 74.774 16.422C75.998 17.6007 76.6326 19.2893 76.678 21.488C76.678 22.984 76.5873 24.0947 76.406 24.82H65.356C65.4466 26.8827 65.934 28.492 66.818 29.648C67.702 30.7813 68.96 31.348 70.592 31.348C71.476 31.348 72.3826 31.2007 73.312 30.906C74.264 30.6113 75.012 30.26 75.556 29.852L76.406 31.722C75.794 32.3793 74.7966 32.9913 73.414 33.558C72.054 34.102 70.6713 34.374 69.266 34.374ZM71.918 22.78C71.9633 22.1453 71.986 21.658 71.986 21.318C71.986 18.3033 70.9773 16.796 68.96 16.796C67.8493 16.796 66.988 17.238 66.376 18.122C65.764 19.006 65.424 20.5587 65.356 22.78H71.918ZM81.2953 18.326L79.1193 17.714V15.368L84.7633 14.654H84.8653L85.7153 15.334V16.66L85.6813 17.476C86.4747 16.728 87.506 16.082 88.7753 15.538C90.0447 14.994 91.3253 14.722 92.6173 14.722C94 14.722 95.0767 14.9827 95.8473 15.504C96.6407 16.0027 97.2073 16.796 97.5473 17.884C97.8873 18.972 98.0573 20.4453 98.0573 22.304V31.688L100.131 31.96V34H91.3593V31.96L93.1953 31.688V22.304C93.1953 21.1253 93.116 20.2073 92.9573 19.55C92.7987 18.87 92.504 18.3827 92.0733 18.088C91.6653 17.7707 91.076 17.612 90.3053 17.612C89.0133 17.612 87.6307 18.1673 86.1573 19.278V31.654L88.1973 31.96V34H79.3233V31.96L81.2953 31.654V18.326Z" fill="#181818"/>
<path d="M113.924 18.36C113.652 18.0427 113.199 17.714 112.564 17.374C111.952 17.034 111.238 16.864 110.422 16.864C109.515 16.864 108.779 17.068 108.212 17.476C107.668 17.8613 107.396 18.4393 107.396 19.21C107.396 19.89 107.623 20.502 108.076 21.046C108.552 21.5673 109.311 22.202 110.354 22.95C111.51 23.8113 112.394 24.65 113.006 25.466C113.618 26.2593 113.924 27.2793 113.924 28.526C113.924 29.7727 113.584 30.838 112.904 31.722C112.224 32.5833 111.317 33.2407 110.184 33.694C109.051 34.1247 107.804 34.34 106.444 34.34C105.424 34.34 104.381 34.2267 103.316 34C102.251 33.7507 101.559 33.49 101.242 33.218L101.922 30.328C102.398 30.736 103.044 31.1213 103.86 31.484C104.676 31.8467 105.526 32.028 106.41 32.028C107.249 32.028 107.963 31.8353 108.552 31.45C109.164 31.0647 109.47 30.464 109.47 29.648C109.47 28.9453 109.209 28.3107 108.688 27.744C108.167 27.1773 107.385 26.5313 106.342 25.806C105.39 25.1487 104.585 24.378 103.928 23.494C103.293 22.5873 102.976 21.4993 102.976 20.23C102.976 19.142 103.282 18.1787 103.894 17.34C104.529 16.5013 105.39 15.8553 106.478 15.402C107.589 14.926 108.858 14.688 110.286 14.688C111.125 14.688 111.975 14.756 112.836 14.892C113.697 15.028 114.275 15.1753 114.57 15.334L113.924 18.36ZM131.222 30.6C130.632 31.5293 129.669 32.402 128.332 33.218C127.017 34.034 125.487 34.442 123.742 34.442C122.11 34.442 120.761 34.0907 119.696 33.388C118.653 32.6853 117.894 31.7673 117.418 30.634C116.942 29.5007 116.704 28.2653 116.704 26.928C116.704 24.6613 117.157 22.5987 118.064 20.74C118.993 18.8587 120.251 17.374 121.838 16.286C123.424 15.198 125.192 14.654 127.142 14.654C128.887 14.654 130.179 15.062 131.018 15.878C131.879 16.6713 132.31 17.714 132.31 19.006C132.31 20.638 131.72 21.998 130.542 23.086C129.363 24.174 127.946 24.99 126.292 25.534C124.637 26.0553 123.073 26.3387 121.6 26.384C121.554 28.016 121.815 29.3307 122.382 30.328C122.971 31.3253 123.855 31.824 125.034 31.824C126.983 31.824 128.751 30.9173 130.338 29.104L131.222 30.6ZM126.122 16.762C124.784 16.762 123.73 17.5667 122.96 19.176C122.189 20.7853 121.736 22.576 121.6 24.548C122.484 24.5027 123.413 24.2647 124.388 23.834C125.385 23.4033 126.212 22.8027 126.87 22.032C127.55 21.2387 127.89 20.332 127.89 19.312C127.89 18.496 127.731 17.8727 127.414 17.442C127.119 16.9887 126.688 16.762 126.122 16.762Z" fill="#BF9D50"/>
<path d="M1.02 43.6H5.592V44.488H2.016V47.356H5.352V48.244H2.016V52H1.02V43.6ZM9.87122 47.8C9.87122 46.4 10.1672 45.328 10.7592 44.584C11.3512 43.832 12.1952 43.456 13.2912 43.456C13.8832 43.456 14.3952 43.56 14.8272 43.768C15.2592 43.976 15.6152 44.272 15.8952 44.656C16.1832 45.032 16.3952 45.488 16.5312 46.024C16.6672 46.552 16.7352 47.144 16.7352 47.8C16.7352 49.2 16.4352 50.276 15.8352 51.028C15.2432 51.772 14.3952 52.144 13.2912 52.144C12.7072 52.144 12.1992 52.04 11.7672 51.832C11.3432 51.624 10.9872 51.332 10.6992 50.956C10.4192 50.572 10.2112 50.116 10.0752 49.588C9.93922 49.052 9.87122 48.456 9.87122 47.8ZM10.9272 47.8C10.9272 48.264 10.9712 48.704 11.0592 49.12C11.1552 49.536 11.2992 49.904 11.4912 50.224C11.6832 50.536 11.9272 50.788 12.2232 50.98C12.5272 51.164 12.8832 51.256 13.2912 51.256C14.0352 51.256 14.6192 50.976 15.0432 50.416C15.4672 49.848 15.6792 48.976 15.6792 47.8C15.6792 47.344 15.6312 46.908 15.5352 46.492C15.4472 46.068 15.3032 45.7 15.1032 45.388C14.9112 45.068 14.6632 44.816 14.3592 44.632C14.0632 44.44 13.7072 44.344 13.2912 44.344C12.5552 44.344 11.9752 44.628 11.5512 45.196C11.1352 45.756 10.9272 46.624 10.9272 47.8ZM21.4223 43.684C21.7263 43.628 22.0743 43.584 22.4663 43.552C22.8663 43.52 23.2303 43.504 23.5583 43.504C23.9263 43.504 24.2743 43.544 24.6023 43.624C24.9383 43.704 25.2303 43.836 25.4783 44.02C25.7343 44.204 25.9383 44.444 26.0903 44.74C26.2423 45.036 26.3183 45.396 26.3183 45.82C26.3183 46.476 26.1383 47.008 25.7783 47.416C25.4183 47.824 24.9623 48.096 24.4103 48.232L24.9863 48.676L27.0743 52H25.9103L23.5943 48.376L22.4183 48.196V52H21.4223V43.684ZM23.5823 44.368C23.4783 44.368 23.3703 44.368 23.2583 44.368C23.1463 44.368 23.0383 44.372 22.9343 44.38C22.8303 44.388 22.7303 44.396 22.6343 44.404C22.5463 44.412 22.4743 44.424 22.4183 44.44V47.536H23.3543C23.9063 47.536 24.3623 47.4 24.7223 47.128C25.0823 46.856 25.2623 46.432 25.2623 45.856C25.2623 45.424 25.1143 45.068 24.8183 44.788C24.5223 44.508 24.1103 44.368 23.5823 44.368ZM36.2565 44.488H33.6405V52H32.6445V44.488H30.0285V43.6H36.2565V44.488ZM45.3128 43.6H46.2728V49.204C46.2728 49.708 46.2048 50.144 46.0688 50.512C45.9408 50.88 45.7528 51.184 45.5048 51.424C45.2648 51.656 44.9728 51.828 44.6288 51.94C44.2848 52.052 43.9048 52.108 43.4888 52.108C42.4968 52.108 41.7488 51.884 41.2448 51.436C40.7408 50.988 40.4888 50.308 40.4888 49.396V43.6H41.4848V48.928C41.4848 49.352 41.5248 49.712 41.6048 50.008C41.6928 50.296 41.8208 50.532 41.9888 50.716C42.1568 50.892 42.3648 51.02 42.6128 51.1C42.8688 51.18 43.1648 51.22 43.5008 51.22C44.1488 51.22 44.6128 51.044 44.8928 50.692C45.1728 50.332 45.3128 49.744 45.3128 48.928V43.6ZM52.8289 46.504L52.1809 45.292H52.1329L52.2529 46.504V52H51.3169V43.468H51.8449L55.8649 49.072L56.4889 50.224H56.5489L56.4169 49.072V43.6H57.3529V52.132H56.8249L52.8289 46.504ZM62.3911 43.6H66.9631V44.488H63.3871V47.236H66.6631V48.124H63.3871V51.112H67.0231V52H62.3911V43.6ZM83.0729 44.488H80.4569V52H79.4609V44.488H76.8449V43.6H83.0729V44.488ZM87.3052 43.6H91.8772V44.488H88.3012V47.236H91.5772V48.124H88.3012V51.112H91.9372V52H87.3052V43.6ZM101.707 52H96.7388V43.6H97.7348V51.112H101.707V52ZM110.906 52H105.938V43.6H106.934V51.112H110.906V52ZM115.137 43.6H119.709V44.488H116.133V47.236H119.409V48.124H116.133V51.112H119.769V52H115.137V43.6ZM124.571 43.684C124.875 43.628 125.223 43.584 125.615 43.552C126.015 43.52 126.379 43.504 126.707 43.504C127.075 43.504 127.423 43.544 127.751 43.624C128.087 43.704 128.379 43.836 128.627 44.02C128.883 44.204 129.087 44.444 129.239 44.74C129.391 45.036 129.467 45.396 129.467 45.82C129.467 46.476 129.287 47.008 128.927 47.416C128.567 47.824 128.111 48.096 127.559 48.232L128.135 48.676L130.223 52H129.059L126.743 48.376L125.567 48.196V52H124.571V43.684ZM126.731 44.368C126.627 44.368 126.519 44.368 126.407 44.368C126.295 44.368 126.187 44.372 126.083 44.38C125.979 44.388 125.879 44.396 125.783 44.404C125.695 44.412 125.623 44.424 125.567 44.44V47.536H126.503C127.055 47.536 127.511 47.4 127.871 47.128C128.231 46.856 128.411 46.432 128.411 45.856C128.411 45.424 128.263 45.068 127.967 44.788C127.671 44.508 127.259 44.368 126.731 44.368Z" fill="#181818"/>
</svg>